<svg width="292" height="48" viewBox="0 0 292 48" fill="none" xmlns="http://www.w3.org/2000/svg">
<path d="M24.6407 0.734873C24.7869 0.435822 25.2131 0.435822 25.3593 0.734874L32.6325 15.6089C32.6904 15.7273 32.803 15.8096 32.9334 15.8289L49.2047 18.2297C49.5315 18.2779 49.6623 18.679 49.4268 18.9106L37.6489 30.4908C37.5556 30.5826 37.5131 30.7141 37.535 30.8431L40.3138 47.1985C40.3694 47.5258 40.0251 47.7745 39.7319 47.6188L25.1876 39.8977C25.0703 39.8354 24.9297 39.8354 24.8124 39.8977L10.2681 47.6188C9.97485 47.7745 9.63057 47.5258 9.68618 47.1985L12.465 30.8431C12.4869 30.7141 12.4444 30.5826 12.3511 30.4908L0.57322 18.9106C0.337672 18.679 0.468479 18.2779 0.795273 18.2297L17.0666 15.8289C17.197 15.8096 17.3096 15.7273 17.3675 15.6089L24.6407 0.734873Z" fill="#FFB546"/>
<path d="M84.6407 0.734873C84.7869 0.435822 85.2131 0.435822 85.3593 0.734874L92.6325 15.6089C92.6904 15.7273 92.803 15.8096 92.9334 15.8289L109.205 18.2297C109.532 18.2779 109.662 18.679 109.427 18.9106L97.6489 30.4908C97.5556 30.5826 97.5131 30.7141 97.535 30.8431L100.314 47.1985C100.369 47.5258 100.025 47.7745 99.7319 47.6188L85.1876 39.8977C85.0703 39.8354 84.9297 39.8354 84.8124 39.8977L70.2681 47.6188C69.9749 47.7745 69.6306 47.5258 69.6862 47.1985L72.465 30.8431C72.4869 30.7141 72.4444 30.5826 72.3511 30.4908L60.5732 18.9106C60.3377 18.679 60.4685 18.2779 60.7953 18.2297L77.0666 15.8289C77.197 15.8096 77.3096 15.7273 77.3675 15.6089L84.6407 0.734873Z" fill="#FFB546"/>
<path d="M145.142 0.71767C145.289 0.422378 145.711 0.42238 145.858 0.717672L153.286 15.6107C153.345 15.7281 153.457 15.8093 153.587 15.8281L170.192 18.2301C170.521 18.2777 170.651 18.683 170.412 18.9139L158.403 30.49C158.307 30.5821 158.264 30.7155 158.286 30.8463L161.121 47.2038C161.178 47.5301 160.836 47.7798 160.542 47.627L145.685 39.8942C145.569 39.834 145.431 39.834 145.315 39.8942L130.458 47.627C130.164 47.7798 129.822 47.5301 129.879 47.2038L132.714 30.8463C132.736 30.7155 132.693 30.5821 132.597 30.49L120.588 18.9139C120.349 18.683 120.479 18.2777 120.808 18.2301L137.413 15.8281C137.543 15.8093 137.655 15.7281 137.714 15.6107L145.142 0.71767Z" fill="#FFB546"/>
<path d="M206.142 0.71767C206.289 0.422378 206.711 0.42238 206.858 0.717672L214.286 15.6107C214.345 15.7281 214.457 15.8093 214.587 15.8281L231.192 18.2301C231.521 18.2777 231.651 18.683 231.412 18.9139L219.403 30.49C219.307 30.5821 219.264 30.7155 219.286 30.8463L222.121 47.2038C222.178 47.5301 221.836 47.7798 221.542 47.627L206.685 39.8942C206.569 39.834 206.431 39.834 206.315 39.8942L191.458 47.627C191.164 47.7798 190.822 47.5301 190.879 47.2038L193.714 30.8463C193.736 30.7155 193.693 30.5821 193.597 30.49L181.588 18.9139C181.349 18.683 181.479 18.2777 181.808 18.2301L198.413 15.8281C198.543 15.8093 198.655 15.7281 198.714 15.6107L206.142 0.71767Z" fill="#FFB546"/>
<path d="M266.641 0.734873C266.787 0.435822 267.213 0.435822 267.359 0.734874L274.632 15.6089C274.69 15.7273 274.803 15.8096 274.933 15.8289L291.205 18.2297C291.532 18.2779 291.662 18.679 291.427 18.9106L279.649 30.4908C279.556 30.5826 279.513 30.7141 279.535 30.8431L282.314 47.1985C282.369 47.5258 282.025 47.7745 281.732 47.6188L267.188 39.8977C267.07 39.8354 266.93 39.8354 266.812 39.8977L252.268 47.6188C251.975 47.7745 251.631 47.5258 251.686 47.1985L254.465 30.8431C254.487 30.7141 254.444 30.5826 254.351 30.4908L242.573 18.9106C242.338 18.679 242.468 18.2779 242.795 18.2297L259.067 15.8289C259.197 15.8096 259.31 15.7273 259.368 15.6089L266.641 0.734873Z" fill="#FFB546"/>
</svg>
