<svg width="477" height="477" viewBox="0 0 477 477" fill="none" xmlns="http://www.w3.org/2000/svg">
<circle cx="238.5" cy="238.5" r="238.5" fill="#DE2F2F"/>
<circle cx="238.5" cy="238.5" r="238.5" fill="#DE2F2F"/>
<circle cx="239.693" cy="239.692" r="220.497" fill="#DE2F2F" stroke="white" stroke-width="5"/>
<path d="M194.868 344.977C194.565 343.922 194.139 342.991 193.59 342.182C193.041 341.359 192.37 340.666 191.575 340.103C190.796 339.525 189.9 339.085 188.889 338.781C187.893 338.478 186.788 338.326 185.575 338.326C183.308 338.326 181.315 338.89 179.596 340.016C177.892 341.142 176.564 342.781 175.611 344.933C174.657 347.071 174.181 349.684 174.181 352.775C174.181 355.865 174.65 358.494 175.589 360.66C176.528 362.826 177.856 364.48 179.575 365.62C181.293 366.747 183.322 367.31 185.662 367.31C187.785 367.31 189.597 366.935 191.099 366.184C192.615 365.418 193.771 364.342 194.565 362.956C195.374 361.57 195.778 359.931 195.778 358.039L197.684 358.32H186.247V351.259H204.811V356.847C204.811 360.746 203.988 364.097 202.341 366.898C200.695 369.686 198.428 371.837 195.54 373.354C192.651 374.856 189.344 375.607 185.618 375.607C181.459 375.607 177.806 374.69 174.657 372.855C171.509 371.007 169.054 368.386 167.292 364.992C165.545 361.584 164.671 357.54 164.671 352.862C164.671 349.266 165.191 346.06 166.231 343.244C167.285 340.413 168.758 338.016 170.65 336.052C172.542 334.088 174.744 332.593 177.257 331.568C179.77 330.542 182.492 330.03 185.423 330.03C187.936 330.03 190.276 330.398 192.442 331.135C194.608 331.857 196.529 332.882 198.204 334.211C199.894 335.539 201.273 337.12 202.341 338.955C203.41 340.774 204.096 342.781 204.399 344.977H194.868ZM237.038 375H221.311V330.636H237.168C241.63 330.636 245.472 331.525 248.692 333.301C251.913 335.063 254.389 337.597 256.122 340.904C257.87 344.211 258.743 348.168 258.743 352.775C258.743 357.396 257.87 361.367 256.122 364.689C254.389 368.01 251.898 370.559 248.649 372.336C245.414 374.112 241.544 375 237.038 375ZM230.691 366.963H236.648C239.421 366.963 241.753 366.472 243.645 365.49C245.551 364.494 246.981 362.956 247.934 360.876C248.902 358.782 249.385 356.082 249.385 352.775C249.385 349.497 248.902 346.818 247.934 344.738C246.981 342.659 245.558 341.128 243.667 340.146C241.775 339.164 239.442 338.673 236.67 338.673H230.691V366.963ZM304.563 344.977C304.26 343.922 303.834 342.991 303.285 342.182C302.736 341.359 302.065 340.666 301.271 340.103C300.491 339.525 299.595 339.085 298.585 338.781C297.588 338.478 296.483 338.326 295.27 338.326C293.003 338.326 291.01 338.89 289.292 340.016C287.588 341.142 286.259 342.781 285.306 344.933C284.353 347.071 283.876 349.684 283.876 352.775C283.876 355.865 284.345 358.494 285.284 360.66C286.223 362.826 287.551 364.48 289.27 365.62C290.988 366.747 293.017 367.31 295.357 367.31C297.48 367.31 299.292 366.935 300.794 366.184C302.31 365.418 303.466 364.342 304.26 362.956C305.069 361.57 305.473 359.931 305.473 358.039L307.379 358.32H295.942V351.259H314.506V356.847C314.506 360.746 313.683 364.097 312.037 366.898C310.39 369.686 308.123 371.837 305.235 373.354C302.347 374.856 299.039 375.607 295.314 375.607C291.155 375.607 287.501 374.69 284.353 372.855C281.204 371.007 278.749 368.386 276.988 364.992C275.24 361.584 274.367 357.54 274.367 352.862C274.367 349.266 274.886 346.06 275.926 343.244C276.98 340.413 278.453 338.016 280.345 336.052C282.237 334.088 284.439 332.593 286.952 331.568C289.465 330.542 292.187 330.03 295.119 330.03C297.631 330.03 299.971 330.398 302.137 331.135C304.303 331.857 306.224 332.882 307.899 334.211C309.589 335.539 310.968 337.12 312.037 338.955C313.105 340.774 313.791 342.781 314.094 344.977H304.563Z" fill="white"/>
<path d="M96.6076 269.709C96.6076 271.28 101.08 273.036 102.497 273.119C122.559 274.299 112.471 233.534 114.722 223.405C117.048 212.934 128.846 207.538 128.846 195.779C128.846 192.802 119.761 207.367 126.297 242.5C128.069 252.026 134.218 262.533 142.795 267.298C154.559 273.834 177.173 262.095 167.266 247.236C159.875 236.148 150.855 210.733 150.855 197.483C150.855 171.077 161.082 148.145 183.644 132.835C184.162 132.483 199.859 124.278 199.057 125.723C198.133 127.385 196.497 128.998 195.337 130.544C187.535 140.948 185.719 149.991 183.73 162.92C181.602 176.754 194.401 195.482 204.24 203.821C214.114 212.188 222.15 233.046 222.15 245.221C222.15 253.62 224.151 275.289 211.456 275.289C197.886 275.289 192.082 253.775 192.082 242.965C192.082 233.929 194.615 226.269 198.247 218.097C207.515 197.245 222.724 174.169 229.443 152.226C239.626 118.968 243.103 78.0265 231.691 55.2015C231.39 54.5997 230.871 53.7803 231.76 54.8915C251.763 79.8952 278.414 132.56 254.01 163.936C253.982 163.972 270.459 145.583 271.885 142.324C272.93 139.936 273.298 141.069 273.298 142.927C273.298 161.497 226.088 260.1 266.788 260.1C281.565 260.1 298.738 226.648 285.008 214.291C284.306 213.659 296.271 223.024 296.701 223.97C298.491 227.907 304.606 204.088 304.606 199.98C304.606 190.608 299.539 182.563 298.286 173.787C298.193 173.141 321.678 193.909 324.91 205.543C327.634 215.35 329.907 225.017 330.971 235.129C331.926 244.197 330.353 249.747 327.166 257.861C324.926 263.561 321.047 270.019 314.215 270.019C309.829 270.019 308.789 259.867 309.6 256.828C310.588 253.123 315.175 249.032 317.866 246.598C321.736 243.099 326.152 240.456 329.422 236.369C335.235 229.101 342.882 223.436 348.434 215.91C349.692 214.204 356.063 205.635 356.063 205.681C356.063 208.339 355.753 211.019 355.753 213.723C355.753 230.282 351.187 245.306 359.61 260.238C364.088 268.176 368.967 269.779 377.744 270.656C389.919 271.874 400.298 266.178 403.972 253.211C404.641 250.85 405.35 247.382 405.35 244.911" stroke="white" stroke-width="10" stroke-linecap="round"/>
</svg>
