<svg width="41" height="41" viewBox="0 0 41 41" fill="none" xmlns="http://www.w3.org/2000/svg">
<path d="M10.25 3.41675L5.125 10.2501V34.1667C5.125 35.0729 5.48497 35.9419 6.12572 36.5827C6.76647 37.2234 7.63551 37.5834 8.54167 37.5834H32.4583C33.3645 37.5834 34.2335 37.2234 34.8743 36.5827C35.515 35.9419 35.875 35.0729 35.875 34.1667V10.2501L30.75 3.41675H10.25Z" stroke="black" stroke-width="2" stroke-linecap="round" stroke-linejoin="round"/>
<path d="M5.125 10.25H35.875" stroke="black" stroke-width="2" stroke-linecap="round" stroke-linejoin="round"/>
<path d="M27.3333 17.0833C27.3333 18.8956 26.6134 20.6337 25.3319 21.9151C24.0504 23.1966 22.3123 23.9166 20.5 23.9166C18.6876 23.9166 16.9496 23.1966 15.6681 21.9151C14.3866 20.6337 13.6666 18.8956 13.6666 17.0833" stroke="black" stroke-width="2" stroke-linecap="round" stroke-linejoin="round"/>
</svg>
